<svg xmlns="http://www.w3.org/2000/svg" version="1.1" xmlns:xlink="http://www.w3.org/1999/xlink" width="1000" height="1000"><g clip-path="url(#SvgjsClipPath1328)"><rect width="1000" height="1000" fill="#39acff"></rect><g transform="matrix(5,0,0,5,0,0)"><svg xmlns="http://www.w3.org/2000/svg" version="1.1" xmlns:xlink="http://www.w3.org/1999/xlink" viewBox="0 0 200 200" width="200" height="200"><rect width="200" height="200" fill="url('#gradient')"></rect><defs><linearGradient id="gradient" gradientTransform="rotate(80 0.5 0.5)"><stop offset="0%" stop-color="#39acff"></stop><stop offset="100%" stop-color="#1666a0"></stop></linearGradient><clipPath id="SvgjsClipPath1328"><rect width="1000" height="1000" x="0" y="0" rx="200" ry="200"></rect></clipPath></defs><g><g fill="#ffffff" transform="matrix(8.158406561218513,0,0,8.158406561218513,31.023523780191994,152.99286982000538)" stroke="#c8512e" stroke-width="0"><path d="M1.46-13.19L4.76-13.19L4.76-10.57L6.49-10.57L6.49-8.28L4.76-8.28L4.76-3.45Q4.76-2.85 4.97-2.62Q5.19-2.38 5.82-2.38L5.82-2.38Q6.31-2.38 6.64-2.44L6.64-2.44L6.64-0.09Q5.75 0.20 4.79 0.20L4.79 0.20Q3.09 0.20 2.28-0.61Q1.46-1.41 1.46-3.04L1.46-3.04L1.46-8.28L0.12-8.28L0.12-10.57L1.46-10.57L1.46-13.19ZM12.26-2.34L12.26-2.34Q12.95-2.34 13.33-2.72Q13.71-3.10 13.70-3.77L13.70-3.77L16.79-3.77Q16.79-2.03 15.54-0.92Q14.30 0.20 12.33 0.20L12.33 0.20Q10.03 0.20 8.70-1.25Q7.37-2.70 7.37-5.25L7.37-5.25L7.37-5.39Q7.37-6.99 7.96-8.22Q8.55-9.44 9.67-10.10Q10.78-10.76 12.30-10.76L12.30-10.76Q14.37-10.76 15.58-9.62Q16.79-8.48 16.79-6.52L16.79-6.52L13.70-6.52Q13.70-7.34 13.30-7.78Q12.90-8.22 12.23-8.22L12.23-8.22Q10.95-8.22 10.73-6.59L10.73-6.59Q10.66-6.07 10.66-5.17L10.66-5.17Q10.66-3.57 11.04-2.96Q11.43-2.34 12.26-2.34Z"></path></g></g></svg></g></g></svg>